<svg xmlns="http://www.w3.org/2000/svg" xmlns:xlink="http://www.w3.org/1999/xlink" width="500" zoomAndPan="magnify" viewBox="0 0 375 374.999991" height="500" preserveAspectRatio="xMidYMid meet" version="1.0"><defs><clipPath id="96351569c8"><path d="M 112.5 112.5 L 262.5 112.5 L 262.5 262.5 L 112.5 262.5 Z M 112.5 112.5 " clip-rule="nonzero"/></clipPath></defs><rect x="-37.5" width="450" fill="#ffffff" y="-37.499999" height="449.999989" fill-opacity="1"/><rect x="-37.5" width="450" fill="#ffffff" y="-37.499999" height="449.999989" fill-opacity="1"/><g clip-path="url(#96351569c8)"><path fill="#ffffff" d="M 187.5 112.5 C 186.273438 112.5 185.046875 112.53125 183.820312 112.589844 C 182.59375 112.652344 181.371094 112.742188 180.148438 112.859375 C 178.925781 112.980469 177.710938 113.132812 176.496094 113.3125 C 175.28125 113.492188 174.070312 113.703125 172.867188 113.941406 C 171.664062 114.179688 170.46875 114.449219 169.277344 114.746094 C 168.085938 115.046875 166.902344 115.375 165.730469 115.730469 C 164.554688 116.085938 163.390625 116.46875 162.234375 116.882812 C 161.078125 117.296875 159.933594 117.738281 158.796875 118.210938 C 157.664062 118.679688 156.542969 119.175781 155.433594 119.699219 C 154.324219 120.226562 153.226562 120.777344 152.144531 121.355469 C 151.0625 121.933594 149.996094 122.539062 148.941406 123.171875 C 147.890625 123.800781 146.851562 124.457031 145.832031 125.140625 C 144.8125 125.820312 143.808594 126.527344 142.824219 127.257812 C 141.835938 127.992188 140.871094 128.746094 139.921875 129.523438 C 138.972656 130.304688 138.042969 131.105469 137.132812 131.929688 C 136.222656 132.753906 135.335938 133.597656 134.46875 134.46875 C 133.597656 135.335938 132.753906 136.222656 131.929688 137.132812 C 131.105469 138.042969 130.304688 138.972656 129.523438 139.921875 C 128.746094 140.871094 127.992188 141.835938 127.257812 142.824219 C 126.527344 143.808594 125.820312 144.8125 125.140625 145.832031 C 124.457031 146.851562 123.800781 147.890625 123.171875 148.941406 C 122.539062 149.996094 121.933594 151.0625 121.355469 152.144531 C 120.777344 153.226562 120.226562 154.324219 119.699219 155.433594 C 119.175781 156.542969 118.679688 157.664062 118.210938 158.796875 C 117.738281 159.933594 117.296875 161.078125 116.882812 162.234375 C 116.46875 163.390625 116.085938 164.554688 115.730469 165.730469 C 115.375 166.902344 115.046875 168.085938 114.746094 169.277344 C 114.449219 170.46875 114.179688 171.664062 113.941406 172.867188 C 113.703125 174.070312 113.492188 175.28125 113.3125 176.496094 C 113.132812 177.710938 112.980469 178.925781 112.859375 180.148438 C 112.742188 181.371094 112.652344 182.59375 112.589844 183.820312 C 112.53125 185.046875 112.5 186.273438 112.5 187.5 C 112.5 188.726562 112.53125 189.953125 112.589844 191.179688 C 112.652344 192.40625 112.742188 193.628906 112.859375 194.851562 C 112.980469 196.074219 113.132812 197.289062 113.3125 198.503906 C 113.492188 199.71875 113.703125 200.929688 113.941406 202.132812 C 114.179688 203.335938 114.449219 204.53125 114.746094 205.722656 C 115.046875 206.914062 115.375 208.097656 115.730469 209.269531 C 116.085938 210.445312 116.46875 211.609375 116.882812 212.765625 C 117.296875 213.921875 117.738281 215.066406 118.210938 216.203125 C 118.679688 217.335938 119.175781 218.457031 119.699219 219.566406 C 120.226562 220.675781 120.777344 221.773438 121.355469 222.855469 C 121.933594 223.9375 122.539062 225.003906 123.171875 226.058594 C 123.800781 227.109375 124.457031 228.148438 125.140625 229.167969 C 125.820312 230.1875 126.527344 231.191406 127.257812 232.175781 C 127.992188 233.164062 128.746094 234.128906 129.523438 235.078125 C 130.304688 236.027344 131.105469 236.957031 131.929688 237.867188 C 132.753906 238.777344 133.597656 239.664062 134.46875 240.53125 C 135.335938 241.402344 136.222656 242.246094 137.132812 243.070312 C 138.042969 243.894531 138.972656 244.695312 139.921875 245.476562 C 140.871094 246.253906 141.835938 247.007812 142.824219 247.742188 C 143.808594 248.472656 144.8125 249.179688 145.832031 249.859375 C 146.851562 250.542969 147.890625 251.199219 148.941406 251.828125 C 149.996094 252.460938 151.0625 253.066406 152.144531 253.644531 C 153.226562 254.222656 154.324219 254.773438 155.433594 255.300781 C 156.542969 255.824219 157.664062 256.320312 158.796875 256.789062 C 159.933594 257.261719 161.078125 257.703125 162.234375 258.117188 C 163.390625 258.527344 164.554688 258.914062 165.730469 259.269531 C 166.902344 259.625 168.085938 259.953125 169.277344 260.253906 C 170.46875 260.550781 171.664062 260.820312 172.867188 261.058594 C 174.070312 261.296875 175.28125 261.507812 176.496094 261.6875 C 177.710938 261.867188 178.925781 262.019531 180.148438 262.140625 C 181.371094 262.257812 182.59375 262.347656 183.820312 262.410156 C 185.046875 262.46875 186.273438 262.5 187.5 262.5 C 188.726562 262.5 189.953125 262.46875 191.179688 262.410156 C 192.40625 262.347656 193.628906 262.257812 194.851562 262.140625 C 196.074219 262.019531 197.289062 261.867188 198.503906 261.6875 C 199.71875 261.507812 200.929688 261.296875 202.132812 261.058594 C 203.335938 260.820312 204.53125 260.550781 205.722656 260.253906 C 206.914062 259.953125 208.097656 259.625 209.269531 259.269531 C 210.445312 258.914062 211.609375 258.527344 212.765625 258.117188 C 213.921875 257.703125 215.066406 257.261719 216.203125 256.789062 C 217.335938 256.320312 218.457031 255.824219 219.566406 255.300781 C 220.675781 254.773438 221.773438 254.222656 222.855469 253.644531 C 223.9375 253.066406 225.003906 252.460938 226.058594 251.828125 C 227.109375 251.199219 228.148438 250.542969 229.167969 249.859375 C 230.1875 249.179688 231.191406 248.472656 232.175781 247.742188 C 233.164062 247.007812 234.128906 246.253906 235.078125 245.476562 C 236.027344 244.695312 236.957031 243.894531 237.867188 243.070312 C 238.777344 242.246094 239.664062 241.402344 240.53125 240.53125 C 241.402344 239.664062 242.246094 238.777344 243.070312 237.867188 C 243.894531 236.957031 244.695312 236.027344 245.476562 235.078125 C 246.253906 234.128906 247.007812 233.164062 247.742188 232.175781 C 248.472656 231.191406 249.179688 230.1875 249.859375 229.167969 C 250.542969 228.148438 251.199219 227.109375 251.828125 226.058594 C 252.460938 225.003906 253.066406 223.9375 253.644531 222.855469 C 254.222656 221.773438 254.773438 220.675781 255.300781 219.566406 C 255.824219 218.457031 256.320312 217.335938 256.789062 216.203125 C 257.261719 215.066406 257.703125 213.921875 258.117188 212.765625 C 258.527344 211.609375 258.914062 210.445312 259.269531 209.269531 C 259.625 208.097656 259.953125 206.914062 260.253906 205.722656 C 260.550781 204.53125 260.820312 203.335938 261.058594 202.132812 C 261.296875 200.929688 261.507812 199.71875 261.6875 198.503906 C 261.867188 197.289062 262.019531 196.074219 262.140625 194.851562 C 262.257812 193.628906 262.347656 192.40625 262.410156 191.179688 C 262.46875 189.953125 262.5 188.726562 262.5 187.5 C 262.5 186.273438 262.46875 185.046875 262.410156 183.820312 C 262.347656 182.59375 262.257812 181.371094 262.136719 180.148438 C 262.015625 178.925781 261.867188 177.710938 261.6875 176.496094 C 261.507812 175.28125 261.296875 174.074219 261.058594 172.867188 C 260.816406 171.664062 260.546875 170.46875 260.25 169.277344 C 259.953125 168.085938 259.625 166.902344 259.269531 165.730469 C 258.910156 164.554688 258.527344 163.390625 258.113281 162.234375 C 257.699219 161.078125 257.257812 159.933594 256.789062 158.800781 C 256.320312 157.667969 255.820312 156.542969 255.296875 155.433594 C 254.773438 154.324219 254.21875 153.230469 253.640625 152.148438 C 253.0625 151.066406 252.457031 149.996094 251.828125 148.945312 C 251.195312 147.890625 250.539062 146.855469 249.855469 145.835938 C 249.175781 144.8125 248.46875 143.8125 247.738281 142.824219 C 247.007812 141.839844 246.25 140.871094 245.472656 139.921875 C 244.695312 138.972656 243.894531 138.046875 243.070312 137.136719 C 242.246094 136.226562 241.398438 135.335938 240.53125 134.46875 C 239.664062 133.601562 238.773438 132.753906 237.863281 131.929688 C 236.953125 131.105469 236.027344 130.304688 235.078125 129.527344 C 234.128906 128.75 233.160156 127.992188 232.175781 127.261719 C 231.1875 126.53125 230.1875 125.824219 229.164062 125.144531 C 228.144531 124.460938 227.109375 123.804688 226.054688 123.171875 C 225.003906 122.542969 223.933594 121.9375 222.851562 121.359375 C 221.769531 120.78125 220.675781 120.226562 219.566406 119.703125 C 218.457031 119.179688 217.332031 118.679688 216.199219 118.210938 C 215.066406 117.742188 213.921875 117.300781 212.765625 116.886719 C 211.609375 116.472656 210.445312 116.089844 209.269531 115.730469 C 208.097656 115.375 206.914062 115.046875 205.722656 114.75 C 204.53125 114.449219 203.335938 114.183594 202.132812 113.941406 C 200.925781 113.703125 199.71875 113.492188 198.503906 113.3125 C 197.289062 113.132812 196.074219 112.984375 194.851562 112.863281 C 193.628906 112.742188 192.40625 112.652344 191.179688 112.589844 C 189.953125 112.53125 188.726562 112.5 187.5 112.5 Z M 187.5 140.625 C 188.386719 140.625 189.273438 140.675781 190.15625 140.777344 C 191.039062 140.878906 191.910156 141.03125 192.777344 141.234375 C 193.640625 141.4375 194.492188 141.691406 195.324219 141.992188 C 196.160156 142.292969 196.976562 142.644531 197.769531 143.039062 C 198.566406 143.4375 199.335938 143.875 200.078125 144.363281 C 200.824219 144.847656 201.535156 145.375 202.21875 145.941406 C 202.902344 146.507812 203.550781 147.113281 204.164062 147.757812 C 204.777344 148.398438 205.347656 149.078125 205.882812 149.785156 C 206.417969 150.496094 206.910156 151.234375 207.359375 152 C 207.808594 152.765625 208.210938 153.554688 208.570312 154.367188 C 208.925781 155.179688 209.234375 156.011719 209.496094 156.859375 C 209.757812 157.710938 209.96875 158.570312 210.132812 159.445312 C 210.292969 160.316406 210.402344 161.195312 210.464844 162.082031 C 210.523438 162.96875 210.53125 163.855469 210.488281 164.742188 C 210.445312 165.628906 210.351562 166.511719 210.207031 167.386719 C 210.0625 168.265625 209.867188 169.128906 209.621094 169.980469 C 209.375 170.835938 209.082031 171.671875 208.738281 172.492188 C 208.398438 173.3125 208.007812 174.109375 207.574219 174.882812 C 207.140625 175.65625 206.660156 176.40625 206.140625 177.125 C 205.621094 177.84375 205.058594 178.53125 204.457031 179.183594 C 203.859375 179.839844 203.222656 180.457031 202.550781 181.035156 C 201.878906 181.617188 201.175781 182.15625 200.441406 182.65625 C 199.703125 183.15625 198.945312 183.609375 198.15625 184.023438 C 197.371094 184.433594 196.5625 184.796875 195.730469 185.113281 C 194.902344 185.429688 194.058594 185.699219 193.195312 185.917969 C 192.335938 186.140625 191.464844 186.308594 190.585938 186.425781 C 189.703125 186.546875 188.820312 186.613281 187.933594 186.628906 C 187.042969 186.644531 186.160156 186.609375 185.273438 186.523438 C 184.390625 186.4375 183.515625 186.300781 182.648438 186.113281 C 181.777344 185.925781 180.925781 185.6875 180.085938 185.402344 C 179.242188 185.113281 178.421875 184.78125 177.621094 184.398438 C 176.820312 184.015625 176.042969 183.589844 175.289062 183.117188 C 155.976562 170.882812 164.34375 140.859375 187.5 140.625 Z M 214.476562 234.375 L 160.523438 234.375 C 159.964844 234.375 159.410156 234.34375 158.859375 234.289062 C 158.304688 234.234375 157.753906 234.152344 157.207031 234.042969 C 156.660156 233.933594 156.121094 233.796875 155.589844 233.636719 C 155.058594 233.472656 154.535156 233.285156 154.019531 233.070312 C 153.507812 232.855469 153.003906 232.617188 152.511719 232.355469 C 152.023438 232.09375 151.546875 231.804688 151.082031 231.496094 C 150.621094 231.1875 150.175781 230.855469 149.746094 230.5 C 149.3125 230.148438 148.902344 229.773438 148.507812 229.378906 C 148.117188 228.988281 147.742188 228.574219 147.390625 228.144531 C 147.035156 227.714844 146.707031 227.265625 146.398438 226.804688 C 146.085938 226.339844 145.800781 225.863281 145.539062 225.371094 C 145.277344 224.882812 145.039062 224.378906 144.828125 223.863281 C 144.613281 223.351562 144.425781 222.828125 144.265625 222.292969 C 144.101562 221.761719 143.96875 221.222656 143.859375 220.675781 C 143.75 220.128906 143.667969 219.578125 143.613281 219.027344 C 143.558594 218.472656 143.53125 217.917969 143.53125 217.359375 C 143.53125 202.945312 154.148438 190.5 169.382812 184.898438 C 170.007812 185.429688 170.660156 185.929688 171.328125 186.402344 C 172 186.878906 172.691406 187.320312 173.402344 187.734375 C 174.109375 188.144531 174.835938 188.527344 175.582031 188.875 C 176.324219 189.226562 177.082031 189.539062 177.851562 189.824219 C 178.625 190.105469 179.40625 190.355469 180.199219 190.566406 C 180.992188 190.78125 181.792969 190.960938 182.601562 191.101562 C 183.410156 191.246094 184.222656 191.355469 185.042969 191.425781 C 185.859375 191.5 186.679688 191.535156 187.5 191.535156 C 188.320312 191.535156 189.140625 191.5 189.957031 191.425781 C 190.777344 191.355469 191.589844 191.246094 192.398438 191.101562 C 193.207031 190.960938 194.007812 190.78125 194.800781 190.566406 C 195.59375 190.355469 196.375 190.105469 197.148438 189.824219 C 197.917969 189.539062 198.675781 189.226562 199.417969 188.875 C 200.164062 188.527344 200.890625 188.144531 201.597656 187.734375 C 202.308594 187.320312 203 186.878906 203.671875 186.402344 C 204.339844 185.929688 204.992188 185.429688 205.617188 184.898438 C 220.851562 190.5 231.46875 202.945312 231.46875 217.359375 C 231.46875 217.917969 231.441406 218.472656 231.386719 219.027344 C 231.332031 219.578125 231.25 220.128906 231.140625 220.675781 C 231.03125 221.222656 230.898438 221.761719 230.734375 222.292969 C 230.574219 222.828125 230.386719 223.351562 230.171875 223.863281 C 229.960938 224.378906 229.722656 224.882812 229.460938 225.371094 C 229.199219 225.863281 228.914062 226.339844 228.601562 226.804688 C 228.292969 227.265625 227.964844 227.714844 227.609375 228.144531 C 227.257812 228.574219 226.882812 228.988281 226.492188 229.378906 C 226.097656 229.773438 225.6875 230.148438 225.253906 230.5 C 224.824219 230.855469 224.378906 231.1875 223.917969 231.496094 C 223.453125 231.804688 222.976562 232.09375 222.488281 232.355469 C 221.996094 232.617188 221.492188 232.855469 220.980469 233.070312 C 220.464844 233.285156 219.941406 233.472656 219.410156 233.636719 C 218.878906 233.796875 218.339844 233.933594 217.792969 234.042969 C 217.246094 234.152344 216.695312 234.234375 216.140625 234.289062 C 215.589844 234.34375 215.035156 234.375 214.476562 234.375 Z M 214.476562 234.375 " fill-opacity="1" fill-rule="nonzero"/></g><path fill="#ffffff" d="M 171.25 152.09375 C 172.5625 163.675781 182.347656 172.421875 193.984375 172.433594 C 205.628906 172.421875 215.527344 163.6875 216.726562 152.09375 L 226.617188 152.203125 C 225.273438 169.039062 211.117188 182.40625 193.992188 182.40625 C 176.867188 182.40625 162.714844 169.039062 161.359375 152.203125 Z M 157.871094 139.460938 C 148.390625 139.460938 145.75 141.136719 144.488281 150.554688 L 133.359375 237.382812 C 132.09375 246.796875 137.308594 250.832031 146.796875 250.832031 L 241.175781 250.832031 C 250.667969 250.832031 255.886719 246.796875 254.613281 237.382812 L 243.496094 150.554688 C 242.21875 141.136719 239.589844 139.460938 230.105469 139.460938 Z M 157.871094 139.460938 " fill-opacity="1" fill-rule="nonzero"/><path fill="#ffffff" d="M 161.359375 132.410156 L 171.25 132.410156 C 172.5625 120.832031 182.347656 112.089844 193.984375 112.078125 C 205.628906 112.089844 215.527344 120.824219 216.726562 132.410156 L 226.617188 132.410156 C 225.265625 115.585938 211.117188 102.105469 193.992188 102.105469 C 176.867188 102.109375 162.703125 115.585938 161.359375 132.410156 Z M 161.359375 132.410156 " fill-opacity="1" fill-rule="nonzero"/></svg>